<svg id="Layer_2" data-name="Layer 2" xmlns="http://www.w3.org/2000/svg" viewBox="0 0 138.08 137.79"><defs><style>.cls-1{fill:#fff;stroke-width:0}</style></defs><g id="Logos"><path class="cls-1" d="M137.22 43.36a7.555 7.555 0 00-1.81-4.36c-2.75-3.19-8.93-10.17-17.54-18.78-8.62-8.62-15.59-14.79-18.78-17.55A7.555 7.555 0 0094.73.86C90.64.55 81.65 0 69.05 0S47.46.55 43.37.86c-1.61.12-3.14.76-4.36 1.81-3.19 2.75-10.16 8.93-18.78 17.55C11.31 29.14 5.33 35.9 2.67 39a7.58 7.58 0 00-1.8 4.34C.56 47.42.01 56.42.01 69.04s.56 21.48.87 25.69c.12 1.61.75 3.14 1.8 4.36 2.67 3.11 8.64 9.86 17.55 18.77 8.62 8.62 15.59 14.79 18.78 17.55 1.22 1.05 2.75 1.39 4.36 1.52 4.09.31 13.08.86 25.68.86s21.59-.55 25.68-.86c1.61-.12 3.14-.46 4.36-1.52 3.19-2.75 10.17-8.93 18.78-17.55 8.91-8.91 14.88-15.66 17.55-18.77a7.57 7.57 0 001.8-4.36c.31-4.21.87-13.5.87-25.69s-.55-21.59-.86-25.68zm-5.43 49.52a6.4 6.4 0 01-1.53 3.69c-2.4 2.8-7.94 9.08-16.28 17.42s-14.57 13.81-17.44 16.28a6.467 6.467 0 01-3.69 1.53c-3.68.29-12.03.81-23.83.81s-20.15-.52-23.83-.81a6.467 6.467 0 01-3.69-1.53c-2.87-2.47-9.37-8.21-17.44-16.28-8.34-8.34-13.88-14.62-16.27-17.42a6.467 6.467 0 01-1.53-3.69c-.28-3.78-.82-12.43-.82-23.84s.53-20.19.81-23.85c.11-1.35.64-2.63 1.52-3.66 2.39-2.79 7.94-9.08 16.29-17.44 8.07-8.07 14.57-13.81 17.44-16.28a6.467 6.467 0 013.69-1.53c3.68-.29 12.03-.81 23.83-.81s20.15.52 23.82.81c1.36.11 2.65.64 3.69 1.53 2.87 2.47 9.37 8.21 17.44 16.28 8.06 8.06 13.81 14.57 16.28 17.44a6.467 6.467 0 011.53 3.69c.29 3.68.81 12.04.81 23.83s-.54 20.07-.82 23.84h.02z"/><path class="cls-1" d="M124.13 56.02c-.1-4.62-.47-8.65-.59-9.54-.2-.37-.7-.93-1.01-1.27-3.96-4.48-7.94-8.81-13.36-14.2-10.54-10.49-16.2-15.46-17.59-16.43-1.04-.12-2.96-.27-8.16-.5-4.14-.18-9.39-.3-9.83-.28-.02.92-.09 70.16-.03 109.53 0 .72.03.95.03.95s12.15.11 18.03-.71c4.02-3.37 11.65-10.58 17.21-16.14 5.94-6.01 11.04-11.47 12.34-13 .54-.64 1.76-1.95 2.39-2.84.09-.76.15-1.4.24-2.81.43-6.96.52-19.43.52-19.84-.54-.03-18.73-.01-19.13 0-.01.31.03 9.56.03 9.61.22.01 8.93 0 9.25 0 0 .16-.24 7.88-.44 9.17-.69.96-1.8 1.97-3.03 3.36-1.34 1.5-3.26 3.53-7.21 7.58-4.94 5.07-12.63 12.26-16.07 15.3.04-.46-.08-88.98-.04-89.87.9.75 3.06 2.73 3.66 3.29 4.18 3.92 8.55 7.94 12.1 11.66 5.19 5.43 10.39 11.08 10.62 11.47.07.41.29 5.13.28 5.52.36.04 9.42-.02 9.78 0m-73.75 67.76c-.04-17.25-.03-37.94-.03-69.62.08-2 0-13 0-13s-.15.52-.3.67c-2.18 5.63-4.69 11.54-7.08 17.79-3.05 7.97-5.95 16.24-8.25 22.33l-.21-.18-6.48-11.47-4.55-7.96s0 9.61.02 10.53c.06 8.76.37 15.78.73 23.36.03.97.43 6.41.43 6.41-.03 0-3.15-3.24-4.83-5.01-2.99-3.16-4-4.39-5.33-6.07-.57-5.76-.84-12.17-.74-24.38.1-11.87.62-19.59.69-20.56.04-.15-.08-.12.35-.62.89-1.04 5.11-5.83 6.17-6.81.5-.46.6-.5.6-.5s.57.81.89 1.28c1.85 2.7 5.12 8.48 8.19 13.72 1.85 3.15 2.07 3.44 2.07 3.44s2.47-7.37 8.44-22.18c4.57-11.33 9.03-20.45 9.15-20.75.33-.04 3.74-.16 7.3-.32 3.65-.17 6.56-.12 6.93-.1.02.67.05 1.07.05 1.07v108.15c0 .47.02.72 0 1.23-.26.01-.86 0-1.34 0-5.48-.02-11.46-.35-12.92-.43"/></g></svg>